<svg width="100" height="43" viewBox="0 0 100 43" fill="none" xmlns="http://www.w3.org/2000/svg">
<circle cx="21.5" cy="21.5" r="21.5" fill="#6750A4"/>
<path d="M24.0966 13.4545V28H20.1477V17.0909H20.0625L16.8807 18.9943V15.642L20.4602 13.4545H24.0966Z" fill="white"/>
<circle cx="78.5" cy="21.5" r="21" stroke="#6750A4" stroke-opacity="0.45"/>
<path d="M73.9659 28V25.1591L79.392 20.6705C79.7519 20.3722 80.0597 20.0928 80.3153 19.8324C80.5758 19.5672 80.7746 19.295 80.9119 19.0156C81.054 18.7363 81.125 18.4261 81.125 18.0852C81.125 17.7112 81.0445 17.3916 80.8835 17.1264C80.7273 16.8613 80.5095 16.6577 80.2301 16.5156C79.9508 16.3688 79.6288 16.2955 79.2642 16.2955C78.8996 16.2955 78.5777 16.3688 78.2983 16.5156C78.0237 16.6624 77.8106 16.8778 77.6591 17.1619C77.5076 17.446 77.4318 17.7917 77.4318 18.1989H73.6818C73.6818 17.1761 73.9115 16.2955 74.3707 15.5568C74.83 14.8182 75.4787 14.25 76.3168 13.8523C77.1548 13.4545 78.1373 13.2557 79.2642 13.2557C80.429 13.2557 81.4375 13.4427 82.2898 13.8168C83.1468 14.1861 83.8073 14.7069 84.2713 15.3793C84.7401 16.0516 84.9744 16.84 84.9744 17.7443C84.9744 18.303 84.8584 18.8594 84.6264 19.4134C84.3944 19.9626 83.9777 20.571 83.3764 21.2386C82.7751 21.9062 81.9205 22.7017 80.8125 23.625L79.4489 24.7614V24.8466H85.1307V28H73.9659Z" fill="#6750A4" fill-opacity="0.45"/>
<path d="M43 21.5H57.5" stroke="#6750A4" stroke-width="3"/>
</svg>
