<svg width="43" height="43" viewBox="0 0 43 43" fill="none" xmlns="http://www.w3.org/2000/svg">
<circle cx="21.5" cy="21.5" r="21" stroke="#6750A4" stroke-opacity="0.45"/>
<path d="M16.9659 28V25.1591L22.392 20.6705C22.7519 20.3722 23.0597 20.0928 23.3153 19.8324C23.5758 19.5672 23.7746 19.295 23.9119 19.0156C24.054 18.7363 24.125 18.4261 24.125 18.0852C24.125 17.7112 24.0445 17.3916 23.8835 17.1264C23.7273 16.8613 23.5095 16.6577 23.2301 16.5156C22.9508 16.3688 22.6288 16.2955 22.2642 16.2955C21.8996 16.2955 21.5777 16.3688 21.2983 16.5156C21.0237 16.6624 20.8106 16.8778 20.6591 17.1619C20.5076 17.446 20.4318 17.7917 20.4318 18.1989H16.6818C16.6818 17.1761 16.9115 16.2955 17.3707 15.5568C17.83 14.8182 18.4787 14.25 19.3168 13.8523C20.1548 13.4545 21.1373 13.2557 22.2642 13.2557C23.429 13.2557 24.4375 13.4427 25.2898 13.8168C26.1468 14.1861 26.8073 14.7069 27.2713 15.3793C27.7401 16.0516 27.9744 16.84 27.9744 17.7443C27.9744 18.303 27.8584 18.8594 27.6264 19.4134C27.3944 19.9626 26.9777 20.571 26.3764 21.2386C25.7751 21.9062 24.9205 22.7017 23.8125 23.625L22.4489 24.7614V24.8466H28.1307V28H16.9659Z" fill="#6750A4" fill-opacity="0.45"/>
</svg>
