{
	"asset":{
		"generator":"Khronos glTF Blender I/O v3.6.28",
		"version":"2.0"
	},
	"extensionsUsed":[
		"KHR_lights_punctual",
		"KHR_materials_transmission",
		"KHR_materials_specular",
		"KHR_materials_ior"
	],
	"extensionsRequired":[
		"KHR_lights_punctual"
	],
	"extensions":{
		"KHR_lights_punctual":{
			"lights":[
				{
					"color":[
						1,
						1,
						1
					],
					"intensity":54351.41306588226,
					"type":"point",
					"name":"Light"
				},
				{
					"color":[
						1,
						0.7875425815582275,
						0.241095632314682
					],
					"intensity":543514130.6588225,
					"spot":{
						"innerConeAngle":0.39269909262657166,
						"outerConeAngle":0.39269909262657166
					},
					"type":"spot",
					"name":"Spot"
				},
				{
					"color":[
						1,
						0.9656218886375427,
						0.7230551242828369
					],
					"intensity":17075,
					"type":"directional",
					"name":"Sun"
				}
			]
		}
	},
	"scene":0,
	"scenes":[
		{
			"name":"Scene",
			"nodes":[
				0,
				1,
				2,
				3,
				4,
				5
			]
		}
	],
	"nodes":[
		{
			"extensions":{
				"KHR_lights_punctual":{
					"light":0
				}
			},
			"name":"Light",
			"rotation":[
				-0.28416627645492554,
				0.7269423007965088,
				0.34203392267227173,
				0.5232754945755005
			],
			"translation":[
				4.076245307922363,
				5.903861999511719,
				-1.0054539442062378
			]
		},
		{
			"mesh":0,
			"name":"Cylinder",
			"scale":[
				2.8959109783172607,
				3.549760341644287,
				2.943376064300537
			],
			"translation":[
				2.2255852222442627,
				4.86161994934082,
				5.6752142906188965
			]
		},
		{
			"extensions":{
				"KHR_lights_punctual":{
					"light":1
				}
			},
			"name":"Spot",
			"rotation":[
				-0.21132555603981018,
				0.04973048344254494,
				0.10381099581718445,
				0.9706140756607056
			],
			"scale":[
				1.5223547220230103,
				1.6551669836044312,
				2.2056498527526855
			],
			"translation":[
				2.6378536224365234,
				13.376651763916016,
				22.498876571655273
			]
		},
		{
			"name":"Area",
			"rotation":[
				-0.7136415243148804,
				-0.009579331614077091,
				0.0028666697908192873,
				0.7004396915435791
			],
			"scale":[
				38.768089294433594,
				38.76808547973633,
				38.7680778503418
			],
			"translation":[
				2.3186614513397217,
				23.596731185913086,
				5.6862406730651855
			]
		},
		{
			"name":"Area.001",
			"rotation":[
				-0.000416452792705968,
				0.7118999361991882,
				-0.7022796273231506,
				0.0012735981727018952
			],
			"scale":[
				18.49166488647461,
				0.257039338350296,
				0.9999173283576965
			],
			"translation":[
				2.5926971435546875,
				0,
				1.5015864372253418
			]
		},
		{
			"extensions":{
				"KHR_lights_punctual":{
					"light":2
				}
			},
			"name":"Sun",
			"rotation":[
				-0.7071068286895752,
				0,
				0,
				0.7071068286895752
			],
			"translation":[
				-8.596207618713379,
				61.99140548706055,
				6.99702262878418
			]
		}
	],
	"materials":[
		{
			"doubleSided":true,
			"name":"TAPA",
			"pbrMetallicRoughness":{
				"baseColorFactor":[
					0.8000000715255737,
					0.11168120056390762,
					0.001864246092736721,
					1
				],
				"metallicFactor":0,
				"roughnessFactor":0.5
			}
		},
		{
			"doubleSided":true,
			"extensions":{
				"KHR_materials_transmission":{
					"transmissionFactor":1
				},
				"KHR_materials_specular":{
					"specularColorFactor":[
						1,
						1,
						1
					]
				},
				"KHR_materials_ior":{
					"ior":1.4500000476837158
				}
			},
			"name":"cilindro",
			"pbrMetallicRoughness":{
				"baseColorFactor":[
					0.8000000715255737,
					0.03547906503081322,
					0.012495821341872215,
					1
				],
				"metallicFactor":0,
				"roughnessFactor":0
			}
		},
		{
			"doubleSided":true,
			"extensions":{
				"KHR_materials_transmission":{
					"transmissionFactor":0.663551390171051
				},
				"KHR_materials_ior":{
					"ior":1.4500000476837158
				}
			},
			"name":"chupon",
			"pbrMetallicRoughness":{
				"baseColorFactor":[
					0.800000011920929,
					0.800000011920929,
					0.800000011920929,
					1
				],
				"metallicFactor":0,
				"roughnessFactor":0.5
			}
		}
	],
	"meshes":[
		{
			"name":"Cylinder",
			"primitives":[
				{
					"attributes":{
						"POSITION":0,
						"NORMAL":1,
						"TEXCOORD_0":2
					},
					"indices":3,
					"material":0
				},
				{
					"attributes":{
						"POSITION":4,
						"NORMAL":5,
						"TEXCOORD_0":6
					},
					"indices":7,
					"material":1
				},
				{
					"attributes":{
						"POSITION":8,
						"NORMAL":9,
						"TEXCOORD_0":10
					},
					"indices":11,
					"material":2
				}
			]
		}
	],
	"accessors":[
		{
			"bufferView":0,
			"componentType":5126,
			"count":646,
			"max":[
				0.8653134107589722,
				2.6710081100463867,
				0.8299986124038696
			],
			"min":[
				-0.8653133511543274,
				2.1807775497436523,
				-0.8299986720085144
			],
			"type":"VEC3"
		},
		{
			"bufferView":1,
			"componentType":5126,
			"count":646,
			"type":"VEC3"
		},
		{
			"bufferView":2,
			"componentType":5126,
			"count":646,
			"type":"VEC2"
		},
		{
			"bufferView":3,
			"componentType":5123,
			"count":2496,
			"type":"SCALAR"
		},
		{
			"bufferView":4,
			"componentType":5126,
			"count":2699,
			"max":[
				1.0042085647583008,
				2.2356746196746826,
				1.0197192430496216
			],
			"min":[
				-1.0042083263397217,
				-1.1992043256759644,
				-1.019719123840332
			],
			"type":"VEC3"
		},
		{
			"bufferView":5,
			"componentType":5126,
			"count":2699,
			"type":"VEC3"
		},
		{
			"bufferView":6,
			"componentType":5126,
			"count":2699,
			"type":"VEC2"
		},
		{
			"bufferView":7,
			"componentType":5123,
			"count":12480,
			"type":"SCALAR"
		},
		{
			"bufferView":8,
			"componentType":5126,
			"count":887,
			"max":[
				0.3387959897518158,
				2.6699302196502686,
				0.3475852310657501
			],
			"min":[
				-0.33879587054252625,
				2.4191508293151855,
				-0.34758517146110535
			],
			"type":"VEC3"
		},
		{
			"bufferView":9,
			"componentType":5126,
			"count":887,
			"type":"VEC3"
		},
		{
			"bufferView":10,
			"componentType":5126,
			"count":887,
			"type":"VEC2"
		},
		{
			"bufferView":11,
			"componentType":5123,
			"count":3840,
			"type":"SCALAR"
		}
	],
	"bufferViews":[
		{
			"buffer":0,
			"byteLength":7752,
			"byteOffset":0,
			"target":34962
		},
		{
			"buffer":0,
			"byteLength":7752,
			"byteOffset":7752,
			"target":34962
		},
		{
			"buffer":0,
			"byteLength":5168,
			"byteOffset":15504,
			"target":34962
		},
		{
			"buffer":0,
			"byteLength":4992,
			"byteOffset":20672,
			"target":34963
		},
		{
			"buffer":0,
			"byteLength":32388,
			"byteOffset":25664,
			"target":34962
		},
		{
			"buffer":0,
			"byteLength":32388,
			"byteOffset":58052,
			"target":34962
		},
		{
			"buffer":0,
			"byteLength":21592,
			"byteOffset":90440,
			"target":34962
		},
		{
			"buffer":0,
			"byteLength":24960,
			"byteOffset":112032,
			"target":34963
		},
		{
			"buffer":0,
			"byteLength":10644,
			"byteOffset":136992,
			"target":34962
		},
		{
			"buffer":0,
			"byteLength":10644,
			"byteOffset":147636,
			"target":34962
		},
		{
			"buffer":0,
			"byteLength":7096,
			"byteOffset":158280,
			"target":34962
		},
		{
			"buffer":0,
			"byteLength":7680,
			"byteOffset":165376,
			"target":34963
		}
	],
	"buffers":[
		{
			"byteLength":173056,
			"uri":"data:application/octet-stream;base64,"
		}
	]
}
