{
	"asset":{
		"generator":"Khronos glTF Blender I/O v4.0.44",
		"version":"2.0"
	},
	"scene":0,
	"scenes":[
		{
			"name":"Scene",
			"nodes":[
				0
			]
		}
	],
	"nodes":[
		{
			"mesh":0,
			"name":"Text",
			"translation":[
				-2.412297248840332,
				-0.005958449561148882,
				5.341621398925781
			]
		}
	],
	"meshes":[
		{
			"name":"HOLA MUNDO",
			"primitives":[
				{
					"attributes":{
						"POSITION":0,
						"NORMAL":1,
						"TEXCOORD_0":2
					},
					"indices":3
				}
			]
		}
	],
	"accessors":[
		{
			"bufferView":0,
			"componentType":5126,
			"count":2268,
			"max":[
				6.5521721839904785,
				0,
				-0.00036185779026709497
			],
			"min":[
				0.07591325789690018,
				-0.5,
				-3.191868782043457
			],
			"type":"VEC3"
		},
		{
			"bufferView":1,
			"componentType":5126,
			"count":2268,
			"type":"VEC3"
		},
		{
			"bufferView":2,
			"componentType":5126,
			"count":2268,
			"type":"VEC2"
		},
		{
			"bufferView":3,
			"componentType":5123,
			"count":4476,
			"type":"SCALAR"
		}
	],
	"bufferViews":[
		{
			"buffer":0,
			"byteLength":27216,
			"byteOffset":0,
			"target":34962
		},
		{
			"buffer":0,
			"byteLength":27216,
			"byteOffset":27216,
			"target":34962
		},
		{
			"buffer":0,
			"byteLength":18144,
			"byteOffset":54432,
			"target":34962
		},
		{
			"buffer":0,
			"byteLength":8952,
			"byteOffset":72576,
			"target":34963
		}
	],
	"buffers":[
		{
			"byteLength":81528,
			"uri":"holamundo2.bin"
		}
	]
}
