<svg width="79" height="72" viewBox="0 0 79 72" fill="none" xmlns="http://www.w3.org/2000/svg">
<g filter="url(#filter0_d_7_30)">
<rect x="4" width="71" height="64" fill="#73B968"/>
</g>
<path d="M7.15212 10.0168C6.17174 10.1919 5.29382 10.7948 4.71151 11.6928C4.12919 12.5908 3.89017 13.7104 4.04703 14.8052C4.20389 15.9 4.74378 16.8803 5.54793 17.5306C6.35209 18.1809 7.35462 18.4478 8.335 18.2726H19.4246L20.09 20.3366L23.1211 30.6564L26.1523 40.9763C26.448 42.0496 27.7048 43.0403 28.6659 43.0403H54.5416C55.5766 43.0403 56.7595 42.0496 57.0552 40.9763L63.0436 20.3366C63.3393 19.2633 62.8958 18.2726 61.8607 18.2726H29.0356L26.2262 12.3284C25.927 11.6461 25.465 11.0693 24.891 10.6614C24.3171 10.2536 23.6535 10.0305 22.9733 10.0168L8.18714 10.0168C7.9658 9.99442 7.74311 9.99442 7.52177 10.0168C7.37404 10.0068 7.22591 10.0068 7.07819 10.0168L7.15212 10.0168ZM30.5142 51.2961C28.4441 51.2961 26.8176 53.1124 26.8176 55.4241C26.8176 57.7357 28.4441 59.552 30.5142 59.552C32.5842 59.552 34.2107 57.7357 34.2107 55.4241C34.2107 53.1124 32.5842 51.2961 30.5142 51.2961ZM52.6933 51.2961C50.6233 51.2961 48.9968 53.1124 48.9968 55.4241C48.9968 57.7357 50.6233 59.552 52.6933 59.552C54.7634 59.552 56.3899 57.7357 56.3899 55.4241C56.3899 53.1124 54.7634 51.2961 52.6933 51.2961Z" fill="black"/>
<defs>
<filter id="filter0_d_7_30" x="0" y="0" width="79" height="72" filterUnits="userSpaceOnUse" color-interpolation-filters="sRGB">
<feFlood flood-opacity="0" result="BackgroundImageFix"/>
<feColorMatrix in="SourceAlpha" type="matrix" values="0 0 0 0 0 0 0 0 0 0 0 0 0 0 0 0 0 0 127 0" result="hardAlpha"/>
<feOffset dy="4"/>
<feGaussianBlur stdDeviation="2"/>
<feComposite in2="hardAlpha" operator="out"/>
<feColorMatrix type="matrix" values="0 0 0 0 0 0 0 0 0 0 0 0 0 0 0 0 0 0 0.25 0"/>
<feBlend mode="normal" in2="BackgroundImageFix" result="effect1_dropShadow_7_30"/>
<feBlend mode="normal" in="SourceGraphic" in2="effect1_dropShadow_7_30" result="shape"/>
</filter>
</defs>
</svg>
