<svg width="46" height="45" viewBox="0 0 46 45" fill="none" xmlns="http://www.w3.org/2000/svg">
<path d="M44 2.02285C44 2.02285 40.1476 4.73047 38.0055 5.49791C36.8556 3.92507 35.3276 2.81028 33.6279 2.3043C31.9282 1.79835 30.139 1.92561 28.5022 2.66891C26.8653 3.41221 25.4597 4.73567 24.4757 6.46028C23.4916 8.18491 22.9765 10.2275 23 12.3118V14.583C19.645 14.6865 16.3206 13.8013 13.3228 12.0061C10.325 10.211 7.74697 7.56167 5.81818 4.29413C5.81818 4.29413 -1.81818 24.7358 15.3636 33.8209C11.4319 36.9959 6.74821 38.5881 2 38.3635C19.1818 49.7199 40.1818 38.3635 40.1818 12.2436C40.1801 11.611 40.1289 10.9799 40.0291 10.3585C41.9775 8.07239 44 2.02285 44 2.02285Z" stroke="white" stroke-width="4" stroke-linecap="round" stroke-linejoin="round"/>
</svg>
