{
	"asset":{
		"generator":"Khronos glTF Blender I/O v4.0.44",
		"version":"2.0"
	},
	"scene":0,
	"scenes":[
		{
			"name":"Scene",
			"nodes":[
				0,
				1,
				2,
				3
			]
		}
	],
	"nodes":[
		{
			"mesh":0,
			"name":"Text",
			"translation":[
				-2.412297248840332,
				-0.005958449561148882,
				5.341621398925781
			]
		},
		{
			"mesh":1,
			"name":"Sphere"
		},
		{
			"name":"NurbsPath",
			"scale":[
				12.260229110717773,
				12.260229110717773,
				12.260229110717773
			],
			"translation":[
				0.23666858673095703,
				-3.64787220954895,
				8.194546699523926
			]
		},
		{
			"name":"Mball",
			"translation":[
				-2,
				-1,
				-4
			]
		}
	],
	"materials":[
		{
			"doubleSided":true,
			"name":"Material.001",
			"pbrMetallicRoughness":{
				"baseColorTexture":{
					"index":0
				},
				"metallicFactor":0,
				"roughnessFactor":0.5
			}
		}
	],
	"meshes":[
		{
			"name":"HOLA MUNDO",
			"primitives":[
				{
					"attributes":{
						"POSITION":0,
						"NORMAL":1,
						"TEXCOORD_0":2
					},
					"indices":3
				}
			]
		},
		{
			"name":"Sphere.001",
			"primitives":[
				{
					"attributes":{
						"POSITION":4,
						"NORMAL":5,
						"TEXCOORD_0":6
					},
					"indices":7,
					"material":0
				}
			]
		}
	],
	"textures":[
		{
			"sampler":0,
			"source":0
		}
	],
	"images":[
		{
			"mimeType":"image/jpeg",
			"name":"rainforest_trail_4k",
			"uri":"rainforest_trail_4k.jpg"
		}
	],
	"accessors":[
		{
			"bufferView":0,
			"componentType":5126,
			"count":378,
			"max":[
				7.463499546051025,
				0,
				0.00989999994635582
			],
			"min":[
				0.08249999582767487,
				0,
				-0.7601000070571899
			],
			"type":"VEC3"
		},
		{
			"bufferView":1,
			"componentType":5126,
			"count":378,
			"type":"VEC3"
		},
		{
			"bufferView":2,
			"componentType":5126,
			"count":378,
			"type":"VEC2"
		},
		{
			"bufferView":3,
			"componentType":5123,
			"count":1104,
			"type":"SCALAR"
		},
		{
			"bufferView":4,
			"componentType":5126,
			"count":1984,
			"max":[
				0.9999997019767761,
				1,
				0.9999993443489075
			],
			"min":[
				-0.9999990463256836,
				-1,
				-1
			],
			"type":"VEC3"
		},
		{
			"bufferView":5,
			"componentType":5126,
			"count":1984,
			"type":"VEC3"
		},
		{
			"bufferView":6,
			"componentType":5126,
			"count":1984,
			"type":"VEC2"
		},
		{
			"bufferView":7,
			"componentType":5123,
			"count":2880,
			"type":"SCALAR"
		}
	],
	"bufferViews":[
		{
			"buffer":0,
			"byteLength":4536,
			"byteOffset":0,
			"target":34962
		},
		{
			"buffer":0,
			"byteLength":4536,
			"byteOffset":4536,
			"target":34962
		},
		{
			"buffer":0,
			"byteLength":3024,
			"byteOffset":9072,
			"target":34962
		},
		{
			"buffer":0,
			"byteLength":2208,
			"byteOffset":12096,
			"target":34963
		},
		{
			"buffer":0,
			"byteLength":23808,
			"byteOffset":14304,
			"target":34962
		},
		{
			"buffer":0,
			"byteLength":23808,
			"byteOffset":38112,
			"target":34962
		},
		{
			"buffer":0,
			"byteLength":15872,
			"byteOffset":61920,
			"target":34962
		},
		{
			"buffer":0,
			"byteLength":5760,
			"byteOffset":77792,
			"target":34963
		}
	],
	"samplers":[
		{
			"magFilter":9729,
			"minFilter":9987
		}
	],
	"buffers":[
		{
			"byteLength":83552,
			"uri":"untitled.bin"
		}
	]
}
